<svg width="100" height="100" viewBox="0 0 100 100" fill="none" xmlns="http://www.w3.org/2000/svg">
  <!-- 背景圆形 - 渐变紫色 -->
  <defs>
    <linearGradient id="adminBg" x1="0%" y1="0%" x2="100%" y2="100%">
      <stop offset="0%" style="stop-color:#8b5cf6;stop-opacity:1" />
      <stop offset="100%" style="stop-color:#6366f1;stop-opacity:1" />
    </linearGradient>
  </defs>
  <circle cx="50" cy="50" r="48" fill="url(#adminBg)" stroke="#39ff14" stroke-width="2"/>
  
  <!-- 可爱的管理员脸 -->
  <!-- 头发 -->
  <path d="M 30 35 Q 25 25 30 20 Q 35 15 50 18 Q 65 15 70 20 Q 75 25 70 35" fill="#1f2937" />
  
  <!-- 脸 -->
  <circle cx="50" cy="50" r="20" fill="#fef3c7"/>
  
  <!-- 眼睛 - 可爱的星星眼 -->
  <g transform="translate(42, 45)">
    <polygon points="4,0 4.8,2.5 7.5,2.5 5.3,4 6,6.5 4,5 2,6.5 2.7,4 0.5,2.5 3.2,2.5" fill="#1f2937"/>
  </g>
  <g transform="translate(52, 45)">
    <polygon points="4,0 4.8,2.5 7.5,2.5 5.3,4 6,6.5 4,5 2,6.5 2.7,4 0.5,2.5 3.2,2.5" fill="#1f2937"/>
  </g>
  
  <!-- 可爱的微笑 -->
  <path d="M 42 56 Q 50 60 58 56" stroke="#1f2937" stroke-width="2" fill="none" stroke-linecap="round"/>
  
  <!-- 腮红 -->
  <circle cx="38" cy="53" r="3" fill="#fca5a5" opacity="0.6"/>
  <circle cx="62" cy="53" r="3" fill="#fca5a5" opacity="0.6"/>
  
  <!-- 王冠装饰 -->
  <g transform="translate(50, 30)">
    <path d="M -8,-5 L -5,-2 L 0,-6 L 5,-2 L 8,-5 L 6,0 L -6,0 Z" fill="#fbbf24" stroke="#f59e0b" stroke-width="1"/>
    <circle cx="-5" cy="-3" r="1.5" fill="#ef4444"/>
    <circle cx="0" cy="-6" r="1.5" fill="#ef4444"/>
    <circle cx="5" cy="-3" r="1.5" fill="#ef4444"/>
  </g>
  
  <!-- 闪光效果 -->
  <circle cx="35" cy="35" r="2" fill="#ffffff" opacity="0.8"/>
  <circle cx="30" cy="40" r="1.5" fill="#ffffff" opacity="0.6"/>
</svg>
